<mxfile host="app.diagrams.net" modified="2023-09-23T18:42:58.735Z" agent="Mozilla/5.0 (Windows NT 10.0; Win64; x64) AppleWebKit/537.36 (KHTML, like Gecko) Chrome/116.0.0.0 Safari/537.36 Agency/95.8.1287.88" version="21.6.6" etag="ruzZSBKDjRKoG2iuCWve" type="github">
  <diagram name="PÃ¡gina-1" id="EEYyMAJt2SIMja0gb9dN">
    <mxGraphModel>
      <root>
        <mxCell id="0" />
        <mxCell id="1" parent="0" />
      </root>
    </mxGraphModel>
  </diagram>
</mxfile>
